<svg width="57" height="66" viewBox="0 0 57 66" fill="none" xmlns="http://www.w3.org/2000/svg">
<g id="Indeterminate question box">
<path id="Vector" d="M11.9223 57.75C10.6451 57.75 9.55167 57.2115 8.64214 56.1344C7.7326 55.0573 7.27783 53.7625 7.27783 52.25V44C7.27783 43.2208 7.50038 42.5677 7.94547 42.0406C8.39056 41.5135 8.94209 41.25 9.60005 41.25C10.258 41.25 10.8095 41.5135 11.2546 42.0406C11.6997 42.5677 11.9223 43.2208 11.9223 44V52.25H18.8889C19.5469 52.25 20.0984 52.5135 20.5435 53.0406C20.9886 53.5677 21.2112 54.2208 21.2112 55C21.2112 55.7792 20.9886 56.4323 20.5435 56.9594C20.0984 57.4865 19.5469 57.75 18.8889 57.75H11.9223ZM44.4334 57.75H37.4667C36.8088 57.75 36.2572 57.4865 35.8121 56.9594C35.367 56.4323 35.1445 55.7792 35.1445 55C35.1445 54.2208 35.367 53.5677 35.8121 53.0406C36.2572 52.5135 36.8088 52.25 37.4667 52.25H44.4334V44C44.4334 43.2208 44.6559 42.5677 45.101 42.0406C45.5461 41.5135 46.0976 41.25 46.7556 41.25C47.4136 41.25 47.9651 41.5135 48.4102 42.0406C48.8553 42.5677 49.0778 43.2208 49.0778 44V52.25C49.0778 53.7625 48.6231 55.0573 47.7135 56.1344C46.804 57.2115 45.7106 57.75 44.4334 57.75ZM7.27783 13.75C7.27783 12.2375 7.7326 10.9427 8.64214 9.86563C9.55167 8.78854 10.6451 8.25 11.9223 8.25H18.8889C19.5469 8.25 20.0984 8.51354 20.5435 9.04063C20.9886 9.56771 21.2112 10.2208 21.2112 11C21.2112 11.7792 20.9886 12.4323 20.5435 12.9594C20.0984 13.4865 19.5469 13.75 18.8889 13.75H11.9223V22C11.9223 22.7792 11.6997 23.4323 11.2546 23.9594C10.8095 24.4865 10.258 24.75 9.60005 24.75C8.94209 24.75 8.39056 24.4865 7.94547 23.9594C7.50038 23.4323 7.27783 22.7792 7.27783 22V13.75ZM49.0778 13.75V22C49.0778 22.7792 48.8553 23.4323 48.4102 23.9594C47.9651 24.4865 47.4136 24.75 46.7556 24.75C46.0976 24.75 45.5461 24.4865 45.101 23.9594C44.6559 23.4323 44.4334 22.7792 44.4334 22V13.75H37.4667C36.8088 13.75 36.2572 13.4865 35.8121 12.9594C35.367 12.4323 35.1445 11.7792 35.1445 11C35.1445 10.2208 35.367 9.56771 35.8121 9.04063C36.2572 8.51354 36.8088 8.25 37.4667 8.25H44.4334C45.7106 8.25 46.804 8.78854 47.7135 9.86563C48.6231 10.9427 49.0778 12.2375 49.0778 13.75ZM28.1778 49.5C28.9906 49.5 29.6776 49.1677 30.2388 48.5031C30.8 47.8385 31.0806 47.025 31.0806 46.0625C31.0806 45.1 30.8 44.2865 30.2388 43.6219C29.6776 42.9573 28.9906 42.625 28.1778 42.625C27.3651 42.625 26.6781 42.9573 26.1169 43.6219C25.5557 44.2865 25.2751 45.1 25.2751 46.0625C25.2751 47.025 25.5557 47.8385 26.1169 48.5031C26.6781 49.1677 27.3651 49.5 28.1778 49.5ZM28.1778 21.175C29.1841 21.175 30.0646 21.5417 30.8194 22.275C31.5741 23.0083 31.9514 23.9479 31.9514 25.0938C31.9514 26.1479 31.6708 27.0875 31.1096 27.9125C30.5484 28.7375 29.9388 29.4938 29.2809 30.1813C28.2746 31.2354 27.5102 32.2323 26.9877 33.1719C26.4652 34.1115 26.1652 35.2458 26.0878 36.575C26.0491 37.2167 26.2426 37.7781 26.6684 38.2594C27.0941 38.7406 27.5973 38.9813 28.1778 38.9813C28.7197 38.9813 29.2132 38.7521 29.6582 38.2938C30.1033 37.8354 30.3646 37.2625 30.442 36.575C30.5194 35.7958 30.7516 35.1083 31.1387 34.5125C31.5257 33.9167 32.0869 33.1833 32.8223 32.3125C34.1769 30.7083 35.0768 29.4135 35.5219 28.4281C35.967 27.4427 36.1895 26.2625 36.1895 24.8875C36.1895 22.4125 35.4348 20.3958 33.9253 18.8375C32.4159 17.2792 30.5001 16.5 28.1778 16.5C26.591 16.5 25.1686 16.924 23.9107 17.7719C22.6529 18.6198 21.695 19.8229 21.037 21.3813C20.8048 21.9313 20.7951 22.4927 21.008 23.0656C21.2208 23.6385 21.5789 24.0396 22.082 24.2688C22.5851 24.4979 23.098 24.4979 23.6205 24.2688C24.143 24.0396 24.559 23.6729 24.8687 23.1688C25.2944 22.5271 25.7879 22.0344 26.3491 21.6906C26.9103 21.3469 27.5199 21.175 28.1778 21.175Z" fill="#4979D1"/>
</g>
</svg>
