<svg width="42" height="53" viewBox="0 0 42 53" fill="none" xmlns="http://www.w3.org/2000/svg">
<path id="Vector" d="M26.0633 0H4.66667C2.1 0 0 2.62009 0 5.82242V46.5794C0 49.7817 2.1 52.4018 4.66667 52.4018H37.3333C39.9 52.4018 42 49.7817 42 46.5794V19.8836C42 18.3406 41.51 16.8559 40.6233 15.7788L29.3533 1.71761C28.49 0.611354 27.3 0 26.0633 0ZM11.6667 34.9345H30.3333C31.6167 34.9345 32.6667 36.2446 32.6667 37.8458C32.6667 39.4469 31.6167 40.757 30.3333 40.757H11.6667C10.3833 40.757 9.33333 39.4469 9.33333 37.8458C9.33333 36.2446 10.3833 34.9345 11.6667 34.9345ZM11.6667 23.2897H30.3333C31.6167 23.2897 32.6667 24.5997 32.6667 26.2009C32.6667 27.8021 31.6167 29.1121 30.3333 29.1121H11.6667C10.3833 29.1121 9.33333 27.8021 9.33333 26.2009C9.33333 24.5997 10.3833 23.2897 11.6667 23.2897ZM11.6667 11.6448H23.3333C24.6167 11.6448 25.6667 12.9549 25.6667 14.5561C25.6667 16.1572 24.6167 17.4673 23.3333 17.4673H11.6667C10.3833 17.4673 9.33333 16.1572 9.33333 14.5561C9.33333 12.9549 10.3833 11.6448 11.6667 11.6448Z" fill="#4979D1"/>
</svg>
